HIERARCHY
ROOT Hips
{
    OFFSET   0.000000   0.000000   0.000000
    CHANNELS 6 Xposition Yposition Zposition Zrotation Xrotation Yrotation
    JOINT Chest
    {
        OFFSET   0.000000   8.007230   0.000000
        CHANNELS 3 Zrotation Xrotation Yrotation
        JOINT Chest2
        {
            OFFSET   0.000000  22.077100   0.000000
            CHANNELS 3 Zrotation Xrotation Yrotation
            JOINT Neck
            {
                OFFSET   0.000000  23.255100   0.000000
                CHANNELS 3 Zrotation Xrotation Yrotation
                JOINT Head
                {
                    OFFSET   0.000000  14.370100   1.956600
                    CHANNELS 3 Zrotation Xrotation Yrotation
                    End Site
                    {
                        OFFSET   0.000000  19.566000   0.000000
                    }
                }
            }
            JOINT LeftCollar
            {
                OFFSET   3.911900  19.017000  -0.467063
                CHANNELS 3 Zrotation Xrotation Yrotation
                JOINT LeftShoulder
                {
                    OFFSET  10.383700   0.000000   0.000000
                    CHANNELS 3 Zrotation Xrotation Yrotation
                    JOINT LeftElbow
                    {
                        OFFSET  26.662100   0.001193   0.000980
                        CHANNELS 3 Zrotation Xrotation Yrotation
                        JOINT LeftWrist
                        {
                            OFFSET  28.869000  -0.000059  -0.000082
                            CHANNELS 3 Zrotation Xrotation Yrotation
                            JOINT LeftFinger0
                            {
                                OFFSET   2.044650  -2.323450   3.252850
                                CHANNELS 3 Zrotation Xrotation Yrotation
                                JOINT LeftFinger01
                                {
                                    OFFSET   3.088130   0.000000   0.000000
                                    CHANNELS 3 Zrotation Xrotation Yrotation
                                    JOINT LeftFinger02
                                    {
                                        OFFSET   2.639460   0.000000   0.000000
                                        CHANNELS 3 Zrotation Xrotation Yrotation
                                        End Site
                                        {
                                            OFFSET   2.582190   0.000000   0.000000
                                        }
                                    }
                                }
                            }
                            JOINT LeftFinger1
                            {
                                OFFSET   8.364480   0.000000   3.252850
                                CHANNELS 3 Zrotation Xrotation Yrotation
                                JOINT LeftFinger11
                                {
                                    OFFSET   4.646930   0.000000   0.000000
                                    CHANNELS 3 Zrotation Xrotation Yrotation
                                    JOINT LeftFinger12
                                    {
                                        OFFSET   2.323470   0.000000   0.000000
                                        CHANNELS 3 Zrotation Xrotation Yrotation
                                        End Site
                                        {
                                            OFFSET   2.273050   0.000000   0.000000
                                        }
                                    }
                                }
                            }
                            JOINT LeftFinger2
                            {
                                OFFSET   8.364490   0.000016   1.078090
                                CHANNELS 3 Zrotation Xrotation Yrotation
                                JOINT LeftFinger21
                                {
                                    OFFSET   5.111610   0.000000   0.000000
                                    CHANNELS 3 Zrotation Xrotation Yrotation
                                    JOINT LeftFinger22
                                    {
                                        OFFSET   2.788150   0.000016   0.000000
                                        CHANNELS 3 Zrotation Xrotation Yrotation
                                        End Site
                                        {
                                            OFFSET   2.727660   0.000000   0.000000
                                        }
                                    }
                                }
                            }
                            JOINT LeftFinger3
                            {
                                OFFSET   7.899780   0.000015  -1.078090
                                CHANNELS 3 Zrotation Xrotation Yrotation
                                JOINT LeftFinger31
                                {
                                    OFFSET   4.646930   0.000000   0.000000
                                    CHANNELS 3 Zrotation Xrotation Yrotation
                                    JOINT LeftFinger32
                                    {
                                        OFFSET   2.323470   0.000000   0.000000
                                        CHANNELS 3 Zrotation Xrotation Yrotation
                                        End Site
                                        {
                                            OFFSET   2.273050   0.000000   0.000000
                                        }
                                    }
                                }
                            }
                            JOINT LeftFinger4
                            {
                                OFFSET   7.435090   0.000000  -3.252850
                                CHANNELS 3 Zrotation Xrotation Yrotation
                                JOINT LeftFinger41
                                {
                                    OFFSET   3.717550   0.000000   0.000000
                                    CHANNELS 3 Zrotation Xrotation Yrotation
                                    JOINT LeftFinger42
                                    {
                                        OFFSET   1.858770   0.000000   0.000000
                                        CHANNELS 3 Zrotation Xrotation Yrotation
                                        End Site
                                        {
                                            OFFSET   1.818440   0.000000   0.000000
                                        }
                                    }
                                }
                            }
                        }
                    }
                }
            }
            JOINT RightCollar
            {
                OFFSET  -3.911910  19.017000  -0.467062
                CHANNELS 3 Zrotation Xrotation Yrotation
                JOINT RightShoulder
                {
                    OFFSET -10.383700   0.000014   0.000000
                    CHANNELS 3 Zrotation Xrotation Yrotation
                    JOINT RightElbow
                    {
                        OFFSET -26.662100   0.001225   0.001091
                        CHANNELS 3 Zrotation Xrotation Yrotation
                        JOINT RightWrist
                        {
                            OFFSET -28.869000  -0.000020  -0.000085
                            CHANNELS 3 Zrotation Xrotation Yrotation
                            JOINT RightFinger0
                            {
                                OFFSET  -2.044650  -2.323490   3.252850
                                CHANNELS 3 Zrotation Xrotation Yrotation
                                JOINT RightFinger01
                                {
                                    OFFSET  -3.088130   0.000000   0.000000
                                    CHANNELS 3 Zrotation Xrotation Yrotation
                                    JOINT RightFinger02
                                    {
                                        OFFSET  -2.639460   0.000000   0.000000
                                        CHANNELS 3 Zrotation Xrotation Yrotation
                                        End Site
                                        {
                                            OFFSET  -2.582190   0.000000   0.000000
                                        }
                                    }
                                }
                            }
                            JOINT RightFinger1
                            {
                                OFFSET  -8.364480   0.000000   3.252850
                                CHANNELS 3 Zrotation Xrotation Yrotation
                                JOINT RightFinger11
                                {
                                    OFFSET  -4.646930   0.000000   0.000000
                                    CHANNELS 3 Zrotation Xrotation Yrotation
                                    JOINT RightFinger12
                                    {
                                        OFFSET  -2.323470   0.000000   0.000000
                                        CHANNELS 3 Zrotation Xrotation Yrotation
                                        End Site
                                        {
                                            OFFSET  -2.273050   0.000000   0.000000
                                        }
                                    }
                                }
                            }
                            JOINT RightFinger2
                            {
                                OFFSET  -8.364480   0.000000   1.078090
                                CHANNELS 3 Zrotation Xrotation Yrotation
                                JOINT RightFinger21
                                {
                                    OFFSET  -5.111620   0.000000   0.000000
                                    CHANNELS 3 Zrotation Xrotation Yrotation
                                    JOINT RightFinger22
                                    {
                                        OFFSET  -2.788160   0.000000   0.000000
                                        CHANNELS 3 Zrotation Xrotation Yrotation
                                        End Site
                                        {
                                            OFFSET  -2.727660   0.000000   0.000000
                                        }
                                    }
                                }
                            }
                            JOINT RightFinger3
                            {
                                OFFSET  -7.899780   0.000000  -1.078090
                                CHANNELS 3 Zrotation Xrotation Yrotation
                                JOINT RightFinger31
                                {
                                    OFFSET  -4.646930   0.000000   0.000000
                                    CHANNELS 3 Zrotation Xrotation Yrotation
                                    JOINT RightFinger32
                                    {
                                        OFFSET  -2.323470   0.000000   0.000000
                                        CHANNELS 3 Zrotation Xrotation Yrotation
                                        End Site
                                        {
                                            OFFSET  -2.273050   0.000000   0.000000
                                        }
                                    }
                                }
                            }
                            JOINT RightFinger4
                            {
                                OFFSET  -7.435090   0.000000  -3.252850
                                CHANNELS 3 Zrotation Xrotation Yrotation
                                JOINT RightFinger41
                                {
                                    OFFSET  -3.717550   0.000000   0.000000
                                    CHANNELS 3 Zrotation Xrotation Yrotation
                                    JOINT RightFinger42
                                    {
                                        OFFSET  -1.858760   0.000000   0.000000
                                        CHANNELS 3 Zrotation Xrotation Yrotation
                                        End Site
                                        {
                                            OFFSET  -1.818440   0.000000   0.000000
                                        }
                                    }
                                }
                            }
                        }
                    }
                }
            }
        }
    }
    JOINT LeftHip
    {
        OFFSET   9.783030   0.000000   0.000000
        CHANNELS 3 Zrotation Xrotation Yrotation
        JOINT LeftKnee
        {
            OFFSET   0.000063 -41.789100   0.000608
            CHANNELS 3 Zrotation Xrotation Yrotation
            JOINT LeftAnkle
            {
                OFFSET   0.000048 -41.133200  -0.000184
                CHANNELS 3 Zrotation Xrotation Yrotation
                JOINT LeftToe
                {
                    OFFSET   0.000000  -6.358960  14.674500
                    CHANNELS 3 Zrotation Xrotation Yrotation
                    End Site
                    {
                        OFFSET   0.000000   0.000000   3.913200
                    }
                }
            }
        }
    }
    JOINT RightHip
    {
        OFFSET  -9.783030   0.000000   0.000000
        CHANNELS 3 Zrotation Xrotation Yrotation
        JOINT RightKnee
        {
            OFFSET   0.000071 -41.789100   0.001239
            CHANNELS 3 Zrotation Xrotation Yrotation
            JOINT RightAnkle
            {
                OFFSET   0.000037 -41.133200  -0.000166
                CHANNELS 3 Zrotation Xrotation Yrotation
                JOINT RightToe
                {
                    OFFSET   0.000000  -6.358960  14.674500
                    CHANNELS 3 Zrotation Xrotation Yrotation
                    End Site
                    {
                        OFFSET   0.000000   0.000000   3.913200
                    }
                }
            }
        }
    }
}
MOTION
Frames: 5
Frame Time:   0.016667
 -0.702537  90.053800   1.419050  -0.844841  -2.536800  -4.380740  -0.350332   2.945170  -0.367388  -0.683076   5.892450  -0.718137   1.461290  -1.016820   0.025338   2.399310  -2.057980   7.797220  -5.053420   0.265698   5.450520 -70.639500  20.959300  -1.471840  -4.446370  -9.764000 -13.385200  17.511900  -0.650117   8.880270  34.381000  23.703300 -61.313700 -30.809800   0.004256   0.002622 -10.402800   0.004908   0.008829 -38.041400   7.469420  -9.433020 -31.629700  -0.002794   0.000923 -22.140800   0.001274   0.000773 -31.417000  -0.172649   0.282647 -47.126100   0.002445  -0.000636 -31.386000   0.005522  -0.003802 -28.699400  -1.036990   1.893810 -39.281400  -0.005871   0.001137 -26.161400   0.006583  -0.008644 -34.969900  -1.237840   1.769110 -52.483500   0.004690  -0.008591 -34.954000   0.001222  -0.000328  10.576600   2.373650   6.515770  67.026900  11.067200  -2.143320   2.915510  -6.282410  13.886800 -21.485100 -13.273500  -1.589540 -36.214500  36.071100  76.914900  32.172800  -0.000546  -0.000950  11.084500  -0.004945  -0.011646  32.619100   2.935070   4.574330  26.784300  -0.000388   0.001081  18.742700   0.003965   0.004023  28.788800  -0.398851  -0.716445  42.184800  -0.001968   0.000794  28.095100   0.000461   0.009411  31.786000  -2.462770  -3.965480  47.818000   0.008636  -0.001328  31.839000   0.011716   0.001905  47.583000  -3.602460  -3.284490  71.539400  -0.008498   0.005939  47.638700   0.009348  -0.004260   0.288565   4.225460   2.005720   0.279522   0.940058  14.233500  -5.173040  -4.464150   4.898750  -0.000000   0.000000  -0.000000   2.771570   3.861460 -10.212900  -0.001812   1.301900  -7.135210 -11.395400   0.165258   3.651490   0.000000   0.000000  -0.000000
 -0.702462  90.053800   1.427180  -0.845000  -2.540650  -4.376120  -0.350488   2.945270  -0.367298  -0.683389   5.892640  -0.717953   1.461290  -1.005020   0.025339   2.398790  -2.034160   7.799300  -5.057560   0.272179   5.455040 -70.647500  20.952400  -1.477190  -4.449860  -9.776160 -13.388700  17.526200  -0.640102   8.848680  34.419200  23.788800 -61.344900 -30.804800   0.004258   0.002610 -10.402900   0.004900   0.008842 -38.051800   7.475150  -9.435100 -31.638400  -0.002793   0.000938 -22.146900   0.001276   0.000783 -31.426000  -0.166686   0.272740 -47.139700   0.002445  -0.000582 -31.395000   0.005529  -0.003803 -28.700000  -1.029460   1.879950 -39.298700  -0.005875   0.001179 -26.172900   0.006589  -0.008632 -34.974700  -1.229070   1.756000 -52.490400   0.004694  -0.008579 -34.958600   0.001232  -0.000329  10.575500   2.381970   6.517400  67.032300  11.072200  -2.140390   2.904800  -6.265070  13.886300 -21.489800 -13.273500  -1.589220 -36.240500  36.108300  76.956700  32.173000  -0.000523  -0.000825  11.084800  -0.004949  -0.011592  32.619200   2.942540   4.585900  26.784900  -0.000387   0.001038  18.745800   0.003966   0.004024  28.788900  -0.396181  -0.715492  42.186300  -0.001969   0.000757  28.096000   0.000444   0.009424  31.787100  -2.458780  -3.959400  47.816100   0.008623  -0.001342  31.840000   0.011713   0.001906  47.583200  -3.602140  -3.284300  71.535800  -0.008557   0.005940  47.638900   0.009370  -0.004259   0.287744   4.120420   2.005960   0.283970   1.055990  14.232800  -5.172990  -4.462610   4.894090   0.000000   0.000000   0.000000   2.773990   3.875000 -10.209200  -0.002702   1.294050  -7.135270 -11.395500   0.166549   3.643000   0.000000   0.000000   0.000000
 -0.702340  90.053700   1.440940  -0.845422  -2.549500  -4.367820  -0.350644   2.945360  -0.367208  -0.683702   5.892840  -0.717769   1.461270  -0.984278   0.025345   2.395930  -1.992190   7.805570  -5.069220   0.286531   5.459560 -70.664100  20.942600  -1.485470  -4.462380  -9.812910 -13.410400  17.539100  -0.618399   8.805430  34.457400  23.874300 -61.376300 -30.799900   0.004259   0.002594 -10.403100   0.004891   0.008885 -38.071400   7.480880  -9.437180 -31.655300  -0.002791   0.000968 -22.158700   0.001283   0.000806 -31.441400  -0.160723   0.262832 -47.162700   0.002445  -0.000462 -31.410300   0.005545  -0.003808 -28.700600  -1.021930   1.866090 -39.331100  -0.005888   0.001276 -26.194500   0.006606  -0.008602 -34.987400  -1.220290   1.742900 -52.509000   0.004706  -0.008549 -34.971000   0.001257  -0.000330  10.573200   2.399340   6.521500  67.041100  11.083100  -2.133180   2.883380  -6.235750  13.885500 -21.498800 -13.273500  -1.586930 -36.297700  36.182500  77.046900  32.173200  -0.000475  -0.000593  11.085100  -0.004955  -0.011482  32.623100   2.957410   4.608270  26.789000  -0.000387   0.000940  18.752300   0.003970   0.004027  28.789100  -0.389572  -0.708825  42.194800  -0.001970   0.000670  28.101700   0.000404   0.009456  31.791900  -2.448160  -3.942270  47.814200   0.008587  -0.001376  31.844300   0.011704   0.001909  47.584800  -3.601820  -3.284110  71.532200  -0.008698   0.005942  47.640500   0.009424  -0.004259   0.286923   4.015380   2.006210   0.288420   1.171920  14.232200  -5.173180  -4.461090   4.886410  -0.000000   0.000000  -0.000000   2.778090   3.899410 -10.201700  -0.003543   1.282170  -7.135310 -11.395600   0.168162   3.627110  -0.000000   0.000000   0.000000
 -0.702225  90.053700   1.452220  -0.846080  -2.560950  -4.360430  -0.350227   2.944590  -0.367217  -0.682867   5.891310  -0.717797   1.457370  -0.965772   0.025382   2.389570  -1.954560   7.817640  -5.088990   0.305226   5.445360 -70.684200  20.937800  -1.490040  -4.478320  -9.880540 -13.455600  17.533900  -0.581665   8.790330  34.440300  23.830800 -61.344600 -30.800300   0.004242   0.002586 -10.402700   0.004891   0.008972 -38.098700   7.462910  -9.407520 -31.675200  -0.002792   0.001008 -22.172600   0.001294   0.000839 -31.454300  -0.181333   0.296400 -47.182300   0.002445  -0.000292 -31.423300   0.005569  -0.003816 -28.699600  -1.038430   1.896140 -39.366000  -0.005907   0.001413 -26.217800   0.006631  -0.008557 -35.008400  -1.240520   1.770580 -52.541400   0.004724  -0.008503 -34.992500   0.001298  -0.000333  10.570400   2.422490   6.526220  67.049000  11.101800  -2.119030   2.858730  -6.215180  13.887200 -21.509200 -13.268400  -1.580440 -36.370700  36.265400  77.159700  32.172700  -0.000416  -0.000288  11.085100  -0.004963  -0.011343  32.635400   2.973920   4.631700  26.800100  -0.000388   0.000798  18.760500   0.003977   0.004031  28.789400  -0.379417  -0.691066  42.216000  -0.001970   0.000541  28.115900   0.000344   0.009505  31.802700  -2.430320  -3.912070  47.826200   0.008532  -0.001426  31.854000   0.011691   0.001912  47.593400  -3.603710  -3.285240  71.544300  -0.008908   0.005947  47.649200   0.009506  -0.004259   0.286924   4.151880   2.006160   0.283470   1.048770  14.232600  -5.173270  -4.466210   4.880920   0.000000   0.000000   0.000000   2.781370   3.922440 -10.190300   0.000163   1.273950  -7.135270 -11.400100   0.168541   3.610600   0.000000   0.000000   0.000000
 -0.702157  90.053600   1.463970  -0.846941  -2.576800  -4.351230  -0.349121   2.943160  -0.367282  -0.680667   5.888460  -0.718002   1.449240  -0.945271   0.025435   2.379360  -1.912870   7.830780  -5.113470   0.328685   5.423530 -70.707500  20.935900  -1.495290  -4.487420  -9.960590 -13.530700  17.530000  -0.556619   8.786910  34.411000  23.733700 -61.281800 -30.800600   0.004216   0.002581 -10.400300   0.004891   0.009072 -38.129300   7.436540  -9.363430 -31.695700  -0.002794   0.001050 -22.187000   0.001309   0.000875 -31.467000  -0.214751   0.350822 -47.201600   0.002447  -0.000104 -31.436200   0.005599  -0.003828 -28.698100  -1.063860   1.942450 -39.402500  -0.005933   0.001566 -26.242100   0.006663  -0.008503 -35.030900  -1.271690   1.813240 -52.576600   0.004747  -0.008445 -35.016000   0.001351  -0.000336  10.567300   2.446020   6.535580  67.053500  11.114500  -2.109160   2.831820  -6.186070  13.901900 -21.517200 -13.250600  -1.569540 -36.464000  36.366300  77.303000  32.168900  -0.000345  -0.000090  11.084500  -0.004971  -0.011197  32.650000   2.994310   4.660690  26.813400  -0.000389   0.000640  18.769400   0.003986   0.004036  28.789800  -0.367346  -0.668374  42.241700  -0.001971   0.000395  28.133000   0.000275   0.009565  31.815300  -2.409750  -3.877110  47.845400   0.008465  -0.001484  31.865100   0.011674   0.001917  47.608700  -3.608230  -3.287940  71.568500  -0.009154   0.005955  47.664600   0.009605  -0.004260   0.286426   4.305310   2.004910   0.278519   0.925623  14.233200  -5.173170  -4.474380   4.874570   0.000000   0.000000  -0.000000   2.785000   3.948400 -10.181800   0.006243   1.269740  -7.135140 -11.406900   0.168598   3.592190   0.000000   0.000000  -0.000000
